HIERARCHY
ROOT Hips
{
	OFFSET -0.001795 -0.223333 0.028219
	CHANNELS 6 Xposition Yposition Zposition Zrotation Yrotation Xrotation 
	JOINT LeftUpLeg
	{
		OFFSET 0.069520 -0.091406 -0.006815
		CHANNELS 3 Zrotation Yrotation Xrotation
		JOINT LeftLeg
		{
			OFFSET 0.034277 -0.375199 -0.004496
			CHANNELS 3 Zrotation Yrotation Xrotation
			JOINT LeftFoot
			{
				OFFSET -0.013596 -0.397961 -0.043693
				CHANNELS 3 Zrotation Yrotation Xrotation
				JOINT LeftToe
				{
					OFFSET 0.026358 -0.055791 0.119288
					CHANNELS 3 Zrotation Yrotation Xrotation
					End Site
					{
						OFFSET 0.000000 0.000000 0.000000
					}
				}
			}
		}
	}
	JOINT RightUpLeg
	{
		OFFSET -0.067670 -0.090522 -0.004320
		CHANNELS 3 Zrotation Yrotation Xrotation
		JOINT RightLeg
		{
			OFFSET -0.038290 -0.382569 -0.008850
			CHANNELS 3 Zrotation Yrotation Xrotation
			JOINT RightFoot
			{
				OFFSET 0.015774 -0.398415 -0.042312
				CHANNELS 3 Zrotation Yrotation Xrotation
				JOINT RightToe
				{
					OFFSET -0.025372 -0.048144 0.123348
					CHANNELS 3 Zrotation Yrotation Xrotation
					End Site
					{
						OFFSET 0.000000 0.000000 0.000000
					}
				}
			}
		}
	}
	JOINT Spine
	{
		OFFSET -0.002533 0.108963 -0.026696
		CHANNELS 3 Zrotation Yrotation Xrotation
		JOINT Spine1
		{
			OFFSET 0.005487 0.135180 0.001092
			CHANNELS 3 Zrotation Yrotation Xrotation
			JOINT Spine2
			{
				OFFSET 0.001457 0.052922 0.025425
				CHANNELS 3 Zrotation Yrotation Xrotation
				JOINT Neck
				{
					OFFSET -0.002778 0.213870 -0.042857
					CHANNELS 3 Zrotation Yrotation Xrotation
					JOINT Head
					{
						OFFSET 0.005152 0.064970 0.051349
						CHANNELS 3 Zrotation Yrotation Xrotation
						End Site
						{
							OFFSET 0.000000 0.000000 0.000000
						}
					}
				}
				JOINT LeftShoulder
				{
					OFFSET 0.078845 0.121749 -0.034090
					CHANNELS 3 Zrotation Yrotation Xrotation
					JOINT LeftArm
					{
						OFFSET 0.090977 0.030469 -0.008868
						CHANNELS 3 Zrotation Yrotation Xrotation
						JOINT LeftForeArm
						{
							OFFSET 0.259612 -0.012772 -0.027456
							CHANNELS 3 Zrotation Yrotation Xrotation
							JOINT LeftHand
							{
								OFFSET 0.249234 0.008986 -0.001171
								CHANNELS 3 Zrotation Yrotation Xrotation
								End Site
								{
									OFFSET 0.000000 0.000000 0.000000
								}
							}
						}
					}
				}
				JOINT RightShoulder
				{
					OFFSET -0.081759 0.118833 -0.038615
					CHANNELS 3 Zrotation Yrotation Xrotation
					JOINT RightArm
					{
						OFFSET -0.096012 0.032551 -0.009143
						CHANNELS 3 Zrotation Yrotation Xrotation
						JOINT RightForeArm
						{
							OFFSET -0.253742 -0.013329 -0.021401
							CHANNELS 3 Zrotation Yrotation Xrotation
							JOINT RightHand
							{
								OFFSET -0.255298 0.007772 -0.005559
								CHANNELS 3 Zrotation Yrotation Xrotation
								End Site
								{
									OFFSET 0.000000 0.000000 0.000000
								}
							}
						}
					}
				}
			}
		}
	}
}
MOTION
Frames: 7
Frame Time: 0.050000
-0.459466 0.931129 0.141081 -0.103382 31.962126 12.233305 5.780704 -2.328208 -21.447290 -4.548913 -1.563265 23.655344 5.225922 8.544634 -3.029136 0.000000 0.000000 0.000000 0.083955 0.592435 -26.933342 -2.811276 0.018719 19.678292 2.090467 4.877084 1.407473 0.000000 0.000000 0.000000 4.549113 -2.574879 17.026997 1.540525 -0.673063 -1.395732 4.678603 -0.722164 8.797678 1.474762 2.639369 -24.633607 0.000000 0.000000 0.000000 -19.013640 -19.411150 4.661910 -50.031537 -17.582115 1.815079 7.570406 -39.003002 -2.558582 0.000000 0.000000 0.000000 16.235003 21.139917 13.820625 48.136174 31.372481 7.109180 -17.331510 21.099323 -1.633218 0.000000 0.000000 0.000000 
-0.461094 0.934458 0.141444 -0.459663 31.736635 12.051126 5.506168 -2.182018 -20.423742 -3.212338 -1.426351 20.549095 5.085000 8.734878 -2.095756 0.000000 0.000000 0.000000 0.337511 0.755271 -25.654387 -2.535300 0.118028 17.174428 1.924784 4.294269 2.719910 0.000000 0.000000 0.000000 4.095077 -2.182811 15.521770 1.114014 -0.453254 -1.633586 4.232359 -1.308474 9.547804 0.631645 2.944521 -23.644973 0.000000 0.000000 0.000000 -18.524369 -19.291964 4.769907 -50.589184 -17.992052 1.841037 7.981684 -42.055614 -2.943509 0.000000 0.000000 0.000000 16.790574 20.323494 13.440892 49.608165 30.622425 7.015925 -17.089896 25.498164 -1.949520 0.000000 0.000000 0.000000 
-0.462423 0.936156 0.141365 -0.832051 31.372750 11.431108 5.491092 -1.942872 -18.822830 -2.333689 -1.237991 17.848272 4.495726 7.765234 -1.609674 0.000000 0.000000 0.000000 0.648191 0.907822 -24.532801 -2.237401 0.143256 15.536861 1.874800 3.971839 4.011555 0.000000 0.000000 0.000000 3.693731 -1.920661 14.588474 0.581663 -0.252403 -1.364183 3.804354 -1.854786 9.759711 -0.127436 3.263631 -23.609186 0.000000 0.000000 0.000000 -19.211450 -19.012212 4.735253 -49.913366 -18.509068 2.047579 9.037781 -45.525000 -3.645444 0.000000 0.000000 0.000000 17.095794 19.936431 13.139904 52.116104 29.934465 7.274144 -18.018137 30.409223 -2.505452 0.000000 0.000000 0.000000 
-0.463497 0.937403 0.141096 -1.018439 31.358953 11.090334 5.334191 -1.775457 -17.523234 -1.592463 -1.043567 15.154324 4.265199 7.554010 -1.082068 0.000000 0.000000 0.000000 0.691729 0.958093 -23.553416 -1.735165 0.080135 14.101281 1.680356 3.507014 4.365443 0.000000 0.000000 0.000000 3.182595 -1.597324 13.222291 0.454625 -0.189290 -1.405460 3.209927 -2.066716 10.696369 -0.521620 3.434799 -22.753887 0.000000 0.000000 0.000000 -18.986736 -19.299361 4.875497 -50.114592 -19.523571 2.380279 11.295477 -49.181199 -5.110468 0.000000 0.000000 0.000000 18.216943 19.489673 13.258523 53.105325 29.636477 7.182075 -18.229430 34.787335 -2.864303 0.000000 0.000000 0.000000 
-0.464349 0.937304 0.140713 -1.156764 31.311801 10.595654 5.387438 -1.616379 -16.290322 -1.136127 -0.907803 13.334609 3.743756 6.775969 -0.632271 0.000000 0.000000 0.000000 0.722414 1.000481 -22.595999 -1.603491 0.074496 13.481132 1.777276 3.671223 4.676108 0.000000 0.000000 0.000000 2.905826 -1.437640 12.531781 0.169251 -0.103318 -1.079419 3.012232 -2.146267 10.610252 -1.055552 3.692439 -22.515778 0.000000 0.000000 0.000000 -19.582271 -19.243008 4.802345 -49.509037 -20.237744 2.712134 13.327956 -53.241994 -6.718648 0.000000 0.000000 0.000000 18.817044 19.764798 13.574404 54.163428 29.666970 7.401351 -17.799905 37.370534 -2.931031 0.000000 0.000000 0.000000 
-0.465024 0.937381 0.140289 -1.214195 31.354259 10.314440 5.399154 -1.493172 -15.229545 -0.923272 -0.750949 11.560418 3.417146 6.338368 -0.267512 0.000000 0.000000 0.000000 0.620665 1.003411 -21.569071 -1.219765 0.013301 12.547359 1.412268 2.873645 4.838615 0.000000 0.000000 0.000000 2.482944 -1.247764 11.715063 -0.038452 -0.025018 -0.969409 2.821439 -2.006648 11.067727 -1.133350 3.801533 -22.807255 0.000000 0.000000 0.000000 -19.256221 -19.587307 4.903149 -49.552013 -21.810959 3.314058 16.290082 -56.075280 -8.879050 0.000000 0.000000 0.000000 19.164711 19.938587 13.871386 54.480182 30.367979 7.761257 -16.624299 39.492309 -2.693143 0.000000 0.000000 0.000000 
-0.465457 0.937448 0.139733 -1.324604 31.553124 9.789947 5.581783 -1.404694 -14.437683 -0.983622 -0.661291 10.714626 3.045821 5.982027 0.294991 0.000000 0.000000 0.000000 0.547087 0.992525 -20.851488 -1.057614 -0.007539 11.929542 1.265847 2.499008 5.387021 0.000000 0.000000 0.000000 2.103788 -1.139064 11.380242 -0.093213 -0.015406 -0.834307 2.646870 -1.705422 11.064585 -1.391753 4.019851 -23.150295 0.000000 0.000000 0.000000 -19.172251 -19.707692 4.801568 -49.270196 -23.182463 3.885264 18.113485 -58.967616 -10.676621 0.000000 0.000000 0.000000 19.353833 20.370177 14.297564 54.762230 30.993527 8.141011 -14.962132 40.320371 -2.213361 0.000000 0.000000 0.000000 
